<?xml version="1.0" standalone="no"?>
<!DOCTYPE svg PUBLIC "-//W3C//DTD SVG 20010904//EN"
 "http://www.w3.org/TR/2001/REC-SVG-20010904/DTD/svg10.dtd">
<svg version="1.0" xmlns="http://www.w3.org/2000/svg"
 width="260.000000pt" height="260.000000pt" viewBox="0 0 260.000000 260.000000"
 preserveAspectRatio="xMidYMid meet">
<metadata>
Created by potrace 1.11, written by Peter Selinger 2001-2013
</metadata>
<g transform="translate(0.000000,260.000000) scale(0.100000,-0.100000)"
fill="#000000" stroke="none">
<path d="M315 1923 c-3 -9 8 -13 36 -13 49 0 95 -22 102 -50 3 -13 -22 -101
-63 -218 -37 -108 -94 -271 -125 -362 -43 -126 -63 -171 -85 -192 -30 -28 -80
-46 -141 -51 -19 -1 -32 -7 -29 -12 8 -16 772 -13 778 3 2 8 -8 12 -33 12 -60
0 -98 27 -90 65 4 20 114 337 118 342 3 2 299 -493 306 -511 2 -6 7 -13 10
-16 3 -3 15 -21 25 -40 132 -242 307 -365 580 -407 130 -19 336 -12 453 17
272 66 457 204 437 326 -11 70 -74 108 -179 108 -93 1 -165 -25 -221 -78 -46
-45 -57 -84 -33 -128 27 -51 148 -72 244 -43 27 8 51 12 54 10 9 -10 -21 -51
-52 -71 -126 -82 -326 -91 -465 -20 -106 54 -116 68 -496 651 -54 83 -139 214
-191 293 -62 94 -89 145 -81 149 16 11 196 98 310 150 117 54 182 73 254 73
35 0 52 4 52 13 0 18 -597 18 -605 0 -3 -9 9 -13 41 -13 34 0 51 -6 69 -25 33
-32 31 -47 -7 -91 -24 -27 -76 -57 -198 -116 -91 -44 -187 -90 -214 -104 -27
-13 -52 -22 -54 -19 -3 2 18 69 47 147 38 107 58 149 78 166 31 24 83 42 126
42 19 0 27 4 25 12 -7 19 -776 19 -783 1z"/>
</g>
</svg>
